<svg width="1400" height="932" viewBox="0 0 1400 932" fill="none" xmlns="http://www.w3.org/2000/svg">
<path fill-rule="evenodd" clip-rule="evenodd" d="M334.747 929.147H413.124L414.824 927.378V846.891L413.123 845.121H332.858V927.182L334.747 929.147ZM332.259 927.377V845.121H252.182L250.293 847.086V927.182L252.182 929.147H330.559L332.259 927.377ZM249.695 927.377V846.891L247.994 845.121H169.617L167.728 847.086V927.182L169.617 929.147H247.994L249.695 927.377ZM167.13 927.377V846.891L165.429 845.121H85.1632V927.182L87.052 929.147H165.429L167.13 927.377ZM84.5649 927.377V845.121H4.48739L2.5983 847.086V927.182L4.48709 929.147H82.8642L84.5649 927.377ZM4.48733 929.769L2.39318 931.948L0 929.458L2 927.377V846.891L0 844.81L2 842.729V762.243L0 760.162L2 758.081V677.594L0 675.514L2 673.433V592.946L0 590.866L2 588.785V508.298L0 506.218L2 504.137V423.65L0 421.57L2 419.489V339.002L0 336.922L2 334.841V254.354L0 252.274L2 250.193V169.706L0 167.626L2 165.545V85.0582L0 82.9775L2 80.8969V0.410108L0 -1.67051L2.39318 -4.16016L4.48704 -1.9819H82.8642L84.9581 -4.16016L87.0519 -1.9819H165.429L167.523 -4.16016L169.617 -1.9819H247.994L250.088 -4.16016L252.182 -1.9819H330.559L332.653 -4.16016L334.747 -1.9819H413.124L415.218 -4.16016L417.311 -1.9819H495.689L497.782 -4.16016L499.876 -1.9819H578.253L580.347 -4.16016L582.441 -1.9819H660.818L662.912 -4.16016L665.006 -1.9819H743.383L745.477 -4.16016L747.571 -1.9819H825.948L828.042 -4.16016L830.136 -1.9819H908.299L910.393 -4.16016L912.487 -1.9819H990.864L992.958 -4.16016L995.052 -1.9819H1073.43L1075.52 -4.16016L1077.62 -1.9819H1155.99L1158.09 -4.16016L1160.18 -1.9819H1238.56L1240.65 -4.16016L1242.75 -1.9819H1321.12L1323.22 -4.16016L1325.31 -1.9819H1403.69L1405.78 -4.16016L1407.88 -1.9819H1486.25L1488.35 -4.16016L1490.44 -1.9819H1568.82L1570.91 -4.16016L1573.01 -1.9819H1651.38L1653.48 -4.16016L1655.57 -1.9819H1733.95L1736.04 -4.16016L1738.14 -1.9819H1816.51L1818.61 -4.16016L1821 -1.67051L1818.91 0.508268V80.7988L1821 82.9775L1818.91 85.1563V165.447L1821 167.626L1818.91 169.804V250.095L1821 252.274L1818.91 254.452V334.743L1821 336.922L1818.91 339.1V419.391L1821 421.57L1818.91 423.749V504.039L1821 506.218L1818.91 508.397V588.687L1821 590.866L1818.91 593.045V673.335L1821 675.514L1818.91 677.693V757.983L1821 760.162L1818.91 762.341V842.631L1821 844.81L1818.91 846.989V927.279L1821 929.458L1818.61 931.948L1816.51 929.769H1738.14L1736.04 931.948L1733.95 929.769H1655.57L1653.48 931.948L1651.38 929.769H1573.01L1570.91 931.948L1568.82 929.769H1490.44L1488.35 931.948L1486.25 929.769H1407.88L1405.78 931.948L1403.69 929.769H1325.31L1323.22 931.948L1321.12 929.769H1242.75L1240.65 931.948L1238.56 929.769H1160.18L1158.09 931.948L1155.99 929.769H1077.62L1075.52 931.948L1073.43 929.769H995.052L992.958 931.948L990.864 929.769H912.487L910.393 931.948L908.299 929.769H830.136L828.042 931.948L825.948 929.769H747.571L745.477 931.948L743.383 929.769H665.006L662.912 931.948L660.818 929.769H582.442L580.347 931.948L578.253 929.769H499.877L497.782 931.948L495.688 929.769H417.312L415.218 931.948L413.123 929.769H334.747L332.653 931.948L330.559 929.769H252.182L250.088 931.948L247.994 929.769H169.617L167.523 931.948L165.429 929.769H87.0522L84.9581 931.948L82.8639 929.769H4.48733ZM417.311 929.147H495.689L497.389 927.378V846.891L495.688 845.121H417.312L415.423 847.086V927.182L417.311 929.147ZM417.311 844.499H495.689L497.389 842.729V762.242L495.688 760.473H417.312L415.423 762.438V842.534L417.311 844.499ZM414.824 842.729V762.242L413.123 760.473H334.747L332.858 762.438V844.499H413.124L414.824 842.729ZM330.559 760.473L332.259 762.243V844.499H252.182L250.293 842.534V762.438L252.182 760.473H330.559ZM332.259 758.081L330.559 759.851H252.182L250.293 757.886V677.79L252.182 675.825H330.559L332.259 677.594V758.081ZM334.747 759.851L332.858 757.886V677.79L334.747 675.825H413.123L414.824 677.594V758.081L413.124 759.851H334.747ZM417.311 759.851L415.423 757.886V677.79L417.312 675.825H495.688L497.389 677.594V758.081L495.689 759.851H417.311ZM499.876 759.851L497.988 757.886V677.79L499.877 675.825H578.253L579.954 677.594V758.081L578.253 759.851H499.876ZM497.988 762.438L499.877 760.473H578.253L579.954 762.242V844.499H499.876L497.988 842.534V762.438ZM497.988 847.086L499.877 845.121H579.954V927.378L578.253 929.147H499.876L497.988 927.182V847.086ZM582.441 929.147L580.552 927.182V845.121H660.818L662.519 846.891V927.378L660.818 929.147H582.441ZM665.006 929.147L663.117 927.182V847.086L665.006 845.121H743.383L745.084 846.891V927.378L743.383 929.147H665.006ZM747.571 929.147L745.682 927.182V847.086L747.571 845.121H827.649V927.378L825.948 929.147H747.571ZM830.136 929.147L828.247 927.182V845.121H908.299L910.094 846.988V927.28L908.299 929.147H830.136ZM747.571 844.499H827.649V762.242L825.948 760.473H747.571L745.682 762.438V842.534L747.571 844.499ZM745.084 842.729V762.242L743.383 760.473H665.006L663.117 762.438V842.534L665.006 844.499H743.383L745.084 842.729ZM662.519 842.729V762.242L660.818 760.473H582.442L580.552 762.438V844.499H660.818L662.519 842.729ZM582.441 759.851H660.818L662.519 758.081V677.594L660.818 675.825H582.442L580.552 677.79V757.886L582.441 759.851ZM582.441 675.203H660.818L662.519 673.433V592.946L660.818 591.177H582.442L580.552 593.142V673.237L582.441 675.203ZM579.954 673.433V592.946L578.253 591.177H499.877L497.988 593.142V673.238L499.876 675.203H578.253L579.954 673.433ZM497.389 673.433V592.946L495.688 591.177H417.312L415.423 593.142V673.238L417.311 675.203H495.689L497.389 673.433ZM414.824 673.433V592.946L413.123 591.177H334.747L332.858 593.142V673.238L334.747 675.203H413.124L414.824 673.433ZM332.259 673.433V592.946L330.559 591.177H252.182L250.293 593.142V673.238L252.182 675.203H330.559L332.259 673.433ZM249.695 673.433V592.946L247.994 591.177H169.617L167.728 593.142V673.238L169.617 675.203H247.994L249.695 673.433ZM247.994 675.825H169.617L167.728 677.79V757.886L169.617 759.851H247.994L249.695 758.081V677.594L247.994 675.825ZM247.994 760.473H169.617L167.728 762.438V842.534L169.617 844.499H247.994L249.695 842.729V762.243L247.994 760.473ZM167.13 842.729V762.243L165.429 760.473H87.0523L85.1632 762.438V844.499H165.429L167.13 842.729ZM82.8639 760.473L84.5649 762.243V844.499H4.48709L2.5983 842.534V762.438L4.48739 760.473H82.8639ZM84.5649 758.081L82.8642 759.851H4.48709L2.5983 757.886V677.79L4.48733 675.825H82.8639L84.5649 677.594V758.081ZM87.052 759.851L85.1632 757.886V677.79L87.0522 675.825H165.429L167.13 677.594V758.081L165.429 759.851H87.052ZM167.13 673.433L165.429 675.203H87.052L85.1632 673.238V591.177H165.429L167.13 592.946V673.433ZM167.13 588.785L165.429 590.555H85.1632V508.494L87.0523 506.529H165.429L167.13 508.298V588.785ZM169.617 590.555L167.728 588.59V508.494L169.617 506.529H247.994L249.695 508.298V588.785L247.994 590.555H169.617ZM252.182 590.555L250.293 588.59V508.494L252.182 506.529H330.558L332.259 508.298V588.785L330.559 590.555H252.182ZM334.747 590.555L332.858 588.59V508.494L334.747 506.529H413.123L414.824 508.298V588.785L413.124 590.555H334.747ZM417.311 590.555L415.423 588.59V508.494L417.312 506.529H495.688L497.389 508.298V588.785L495.689 590.555H417.311ZM499.876 590.555L497.988 588.59V508.494L499.877 506.529H578.253L579.954 508.298V588.785L578.253 590.555H499.876ZM582.441 590.555L580.552 588.589V508.494L582.442 506.529H660.818L662.519 508.298V588.785L660.818 590.555H582.441ZM665.006 590.555L663.117 588.589V508.494L665.006 506.529H743.383L745.084 508.298V588.785L743.383 590.555H665.006ZM663.117 593.142L665.006 591.177H743.383L745.084 592.946V673.433L743.383 675.203H665.006L663.117 673.237V593.142ZM663.117 677.79L665.006 675.825H743.383L745.084 677.594V758.081L743.383 759.851H665.006L663.117 757.886V677.79ZM747.571 759.851L745.682 757.886V677.79L747.571 675.825H825.948L827.649 677.594V758.081L825.948 759.851H747.571ZM830.136 759.851L828.247 757.886V677.79L830.136 675.825H908.299L910.094 677.692V757.984L908.299 759.851H830.136ZM828.247 762.438L830.136 760.473H908.299L910.094 762.34V842.632L908.299 844.499H828.247V762.438ZM830.136 675.203H908.299L910.094 673.336V593.044L908.299 591.177H828.247V673.237L830.136 675.203ZM827.649 673.433V591.177H747.571L745.682 593.142V673.237L747.571 675.203H825.948L827.649 673.433ZM747.571 590.555H827.649V508.298L825.948 506.529H747.571L745.682 508.494V588.589L747.571 590.555ZM747.571 505.906H825.948L827.649 504.137V423.65L825.948 421.881H747.571L745.682 423.846V503.941L747.571 505.906ZM745.084 504.137V423.65L743.383 421.881H665.006L663.117 423.846V503.941L665.006 505.906H743.383L745.084 504.137ZM662.519 504.137V423.65L660.818 421.881H582.442L580.552 423.846V503.941L582.441 505.906H660.818L662.519 504.137ZM579.954 504.137V423.65L578.253 421.881H499.877L497.988 423.846V503.941L499.876 505.906H578.253L579.954 504.137ZM497.389 504.137V423.65L495.688 421.881H417.312L415.423 423.846V503.941L417.311 505.906H495.689L497.389 504.137ZM414.824 504.137V423.65L413.123 421.881H334.747L332.858 423.846V503.941L334.747 505.906H413.124L414.824 504.137ZM332.259 504.137V423.65L330.558 421.881H252.182L250.293 423.846V503.941L252.182 505.906H330.559L332.259 504.137ZM249.695 504.137V423.65L247.994 421.881H169.617L167.728 423.846V503.941L169.617 505.906H247.994L249.695 504.137ZM167.13 504.137V423.65L165.429 421.881H87.0523L85.1632 423.846V503.942L87.0519 505.906H165.429L167.13 504.137ZM84.5649 504.137V423.65L82.8638 421.881H4.48742L2.5983 423.846V503.942L4.48703 505.906H82.8642L84.5649 504.137ZM82.8638 506.529H4.48742L2.5983 508.494V588.59L4.48709 590.555H84.5649V508.298L82.8638 506.529ZM2.5983 593.142L4.48739 591.177H84.5649V673.433L82.8642 675.203H4.48709L2.5983 673.238V593.142ZM4.48703 421.258H82.8642L84.5649 419.489V337.233H4.48739L2.5983 339.198V419.293L4.48703 421.258ZM4.48703 336.61H84.5649V254.354L82.8638 252.585H4.48742L2.5983 254.55V334.645L4.48703 336.61ZM4.48703 251.962H82.8642L84.5649 250.193V169.706L82.8639 167.937H4.4874L2.5983 169.902V249.997L4.48703 251.962ZM4.48703 167.314H82.8642L84.5649 165.545V83.2886H4.4874L2.5983 85.2538V165.349L4.48703 167.314ZM4.48705 82.6662H84.5649V0.410103L82.8639 -1.35949H4.4874L2.5983 0.605762V80.7013L4.48705 82.6662ZM85.1632 0.605765V82.6662H165.429L167.13 80.8969V0.410089L165.429 -1.35949H87.0523L85.1632 0.605765ZM167.728 0.60578V80.7013L169.617 82.6662H247.994L249.695 80.897V0.410073L247.994 -1.35949H169.617L167.728 0.60578ZM250.293 0.605795V80.7012L252.182 82.6662H332.259V0.410073L330.559 -1.35949H252.182L250.293 0.605795ZM332.858 0.605797V82.6662H413.124L414.824 80.897V0.410041L413.123 -1.35949H334.747L332.858 0.605797ZM415.423 0.605829V80.7012L417.311 82.6662H495.689L497.389 80.897V0.410041L495.688 -1.35949H417.312L415.423 0.605829ZM497.988 0.605829V80.7012L499.876 82.6662H579.954V0.410041L578.253 -1.35949H499.877L497.988 0.605829ZM580.552 0.60586V82.6662H660.818L662.519 80.897V0.410041L660.818 -1.35949H582.442L580.552 0.60586ZM663.117 0.60586V80.7012L665.006 82.6662H743.383L745.084 80.897V0.410041L743.383 -1.35949H665.006L663.117 0.60586ZM745.682 0.60586V80.7012L747.571 82.6662H827.649V0.409977L825.948 -1.35949H747.571L745.682 0.60586ZM828.247 0.60586V82.6662H908.299L910.094 80.7994V0.507633L908.299 -1.35949H830.136L828.247 0.60586ZM745.682 85.2539L747.571 83.2886H827.649V165.545L825.948 167.314H747.571L745.682 165.349V85.2539ZM743.383 83.2886L745.084 85.0581V165.545L743.383 167.314H665.006L663.117 165.349V85.2539L665.006 83.2886H743.383ZM660.818 83.2886L662.519 85.0581V165.545L660.818 167.314H582.441L580.552 165.349V83.2886H660.818ZM579.954 165.545V83.2886H499.877L497.988 85.2539V165.349L499.876 167.314H578.253L579.954 165.545ZM578.253 167.937H499.877L497.988 169.902V249.997L499.876 251.962H578.253L579.954 250.193V169.706L578.253 167.937ZM580.552 169.902V249.997L582.441 251.962H660.818L662.519 250.193V169.706L660.818 167.937H582.442L580.552 169.902ZM663.117 169.902V249.997L665.006 251.962H743.383L745.084 250.193V169.706L743.383 167.937H665.006L663.117 169.902ZM745.682 169.902V249.997L747.571 251.962H825.948L827.649 250.193V169.706L825.948 167.937H747.571L745.682 169.902ZM828.247 169.902V249.997L830.136 251.962H908.299L910.094 250.096V169.804L908.299 167.937H830.136L828.247 169.902ZM830.136 167.314H908.299L910.094 165.447V85.1557L908.299 83.2886H828.247V165.349L830.136 167.314ZM828.247 254.55L830.136 252.585H908.299L910.094 254.452V334.744L908.299 336.61H828.247V254.55ZM825.948 252.585L827.649 254.354V336.61H747.571L745.682 334.645V254.55L747.571 252.585H825.948ZM743.383 252.585L745.084 254.354V334.841L743.383 336.61H665.006L663.117 334.645V254.55L665.006 252.585H743.383ZM660.818 252.585L662.519 254.354V334.841L660.818 336.61H582.441L580.552 334.645V254.55L582.442 252.585H660.818ZM578.253 252.585L579.954 254.354V334.841L578.253 336.61H499.876L497.988 334.645V254.55L499.877 252.585H578.253ZM495.688 252.585L497.389 254.354V334.841L495.689 336.61H417.311L415.423 334.645V254.55L417.312 252.585H495.688ZM497.389 250.193L495.689 251.962H417.311L415.423 249.997V169.902L417.312 167.937H495.688L497.389 169.706V250.193ZM497.389 165.545L495.689 167.314H417.311L415.423 165.349V85.2539L417.312 83.2886H495.688L497.389 85.0581V165.545ZM413.123 83.2886L414.824 85.0581V165.545L413.124 167.314H334.747L332.858 165.349V83.2886H413.123ZM332.259 165.545V83.2886H252.182L250.293 85.2538V165.349L252.182 167.314H330.559L332.259 165.545ZM330.559 167.937H252.182L250.293 169.902V249.997L252.182 251.962H330.559L332.259 250.193V169.706L330.559 167.937ZM332.858 169.902V249.997L334.747 251.962H413.124L414.824 250.193V169.706L413.123 167.937H334.747L332.858 169.902ZM413.123 252.585H334.747L332.858 254.55V334.645L334.747 336.61H413.124L414.824 334.841V254.354L413.123 252.585ZM413.123 337.233H334.747L332.858 339.198V419.293L334.747 421.258H413.124L414.824 419.489V339.002L413.123 337.233ZM415.423 339.198V419.293L417.311 421.258H495.689L497.389 419.489V339.002L495.688 337.233H417.312L415.423 339.198ZM497.988 339.198V419.293L499.876 421.258H578.253L579.954 419.489V339.002L578.253 337.233H499.877L497.988 339.198ZM580.552 339.198V419.293L582.441 421.258H660.818L662.519 419.489V339.002L660.818 337.233H582.442L580.552 339.198ZM663.117 339.198V419.293L665.006 421.258H743.383L745.084 419.489V339.002L743.383 337.233H665.006L663.117 339.198ZM745.682 339.198V419.293L747.571 421.258H825.948L827.649 419.489V337.233H747.571L745.682 339.198ZM830.136 421.258L828.247 419.293V337.233H908.299L910.094 339.1V419.392L908.299 421.258H830.136ZM828.247 423.846L830.136 421.881H908.299L910.094 423.748V504.04L908.299 505.906H830.136L828.247 503.941V423.846ZM828.247 508.494L830.136 506.529H908.299L910.094 508.396V588.688L908.299 590.555H828.247V508.494ZM332.259 419.489V339.002L330.559 337.233H252.182L250.293 339.198V419.293L252.182 421.258H330.559L332.259 419.489ZM249.695 419.489V339.002L247.994 337.233H169.617L167.728 339.198V419.293L169.617 421.258H247.994L249.695 419.489ZM167.13 419.489V339.002L165.429 337.233H85.1632V419.293L87.0519 421.258H165.429L167.13 419.489ZM167.13 334.841L165.429 336.61H85.1632V254.55L87.0523 252.585H165.429L167.13 254.354V334.841ZM169.617 336.61L167.728 334.645V254.55L169.617 252.585H247.994L249.695 254.354V334.841L247.994 336.61H169.617ZM252.182 336.61L250.293 334.645V254.55L252.182 252.585H330.558L332.259 254.354V334.841L330.559 336.61H252.182ZM249.695 250.193L247.994 251.962H169.617L167.728 249.997V169.902L169.617 167.937H247.994L249.695 169.706V250.193ZM249.695 165.545L247.994 167.314H169.617L167.728 165.349V85.2538L169.617 83.2886H247.994L249.695 85.0581V165.545ZM165.429 83.2886L167.13 85.0581V165.545L165.429 167.314H87.0519L85.1632 165.349V83.2886H165.429ZM85.1632 169.902L87.0523 167.937H165.429L167.13 169.706V250.193L165.429 251.962H87.0519L85.1632 249.997V169.902ZM1321.12 929.147H1242.75L1240.95 927.279V845.121H1321.12L1322.92 846.988V927.28L1321.12 929.147ZM1240.35 845.121V927.28L1238.56 929.147H1160.18L1158.39 927.279V846.989L1160.18 845.121H1240.35ZM1157.79 846.988V927.28L1155.99 929.147H1077.62L1075.82 927.279V846.989L1077.62 845.121H1155.99L1157.79 846.988ZM1075.22 846.988V927.28L1073.43 929.147H995.052L993.257 927.279V845.121H1073.43L1075.22 846.988ZM992.659 845.121V927.28L990.864 929.147H912.487L910.692 927.279V846.989L912.487 845.121H992.659ZM1403.69 929.147H1325.31L1323.52 927.279V846.989L1325.31 845.121H1403.69L1405.48 846.988V927.28L1403.69 929.147ZM1403.69 844.499H1325.31L1323.52 842.631V762.341L1325.31 760.473H1403.69L1405.48 762.34V842.632L1403.69 844.499ZM1322.92 762.34V842.632L1321.12 844.499H1240.95V762.341L1242.75 760.473H1321.12L1322.92 762.34ZM1240.35 762.34L1238.56 760.473H1160.18L1158.39 762.341V842.631L1160.18 844.499H1240.35V762.34ZM1238.56 759.851L1240.35 757.984V677.692L1238.56 675.825H1160.18L1158.39 677.693V757.983L1160.18 759.851H1238.56ZM1240.95 757.983L1242.75 759.851H1321.12L1322.92 757.984V677.692L1321.12 675.825H1242.75L1240.95 677.693V757.983ZM1323.52 757.983L1325.31 759.851H1403.69L1405.48 757.984V677.692L1403.69 675.825H1325.31L1323.52 677.693V757.983ZM1406.08 757.983L1407.88 759.851H1486.25L1488.05 757.984V677.692L1486.25 675.825H1407.88L1406.08 677.693V757.983ZM1407.88 760.473L1406.08 762.341V842.631L1407.88 844.499H1488.05V762.34L1486.25 760.473H1407.88ZM1407.88 845.121L1406.08 846.989V927.279L1407.88 929.147H1486.25L1488.05 927.28V845.121H1407.88ZM1488.65 927.279L1490.44 929.147H1568.82L1570.61 927.28V846.988L1568.82 845.121H1488.65V927.279ZM1571.21 927.279L1573.01 929.147H1651.38L1653.18 927.28V846.988L1651.38 845.121H1573.01L1571.21 846.989V927.279ZM1653.78 927.279L1655.57 929.147H1733.95L1735.74 927.28V845.121H1655.57L1653.78 846.989V927.279ZM1736.34 927.279L1738.14 929.147H1816.51L1818.31 927.28V846.988L1816.51 845.121H1736.34V927.279ZM1816.51 844.499L1818.31 842.632V762.34L1816.51 760.473H1738.14L1736.34 762.341V844.499H1816.51ZM1816.51 759.851L1818.31 757.984V677.692L1816.51 675.825H1738.14L1736.34 677.693V757.983L1738.14 759.851H1816.51ZM1816.51 675.203L1818.31 673.336V593.044L1816.51 591.177H1736.34V673.335L1738.14 675.203H1816.51ZM1816.51 590.555L1818.31 588.688V508.396L1816.51 506.529H1738.14L1736.34 508.397V590.555H1816.51ZM1816.51 505.906L1818.31 504.04V423.748L1816.51 421.881H1738.14L1736.34 423.749V504.039L1738.14 505.906H1816.51ZM1816.51 421.258L1818.31 419.392V339.1L1816.51 337.233H1736.34V419.391L1738.14 421.258H1816.51ZM1816.51 336.61L1818.31 334.744V254.452L1816.51 252.585H1738.14L1736.34 254.453V336.61H1816.51ZM1816.51 251.962L1818.31 250.096V169.804L1816.51 167.937H1738.14L1736.34 169.805V250.095L1738.14 251.962H1816.51ZM1816.51 167.314L1818.31 165.447V85.1557L1816.51 83.2886H1736.34V165.447L1738.14 167.314H1816.51ZM1816.51 82.6662L1818.31 80.7994V0.507633L1816.51 -1.35949H1738.14L1736.34 0.508395V82.6662H1816.51ZM1735.74 0.507506L1733.95 -1.35949H1655.57L1653.78 0.508268V80.7988L1655.57 82.6662H1735.74V0.507506ZM1653.18 0.507633L1651.38 -1.35949H1573.01L1571.21 0.508268V80.7988L1573.01 82.6662H1651.38L1653.18 80.7994V0.507633ZM1570.61 0.507506L1568.82 -1.35949H1490.44L1488.65 0.508268V82.6662H1568.82L1570.61 80.7995V0.507506ZM1488.05 0.507633L1486.25 -1.35949H1407.88L1406.08 0.508268V80.7988L1407.88 82.6662H1488.05V0.507633ZM1405.48 0.507633L1403.69 -1.35949H1325.31L1323.52 0.508268V80.7988L1325.31 82.6662H1403.69L1405.48 80.7994V0.507633ZM1322.92 0.507633L1321.12 -1.35949H1242.75L1240.95 0.508268V82.6662H1321.12L1322.92 80.7994V0.507633ZM1240.35 0.507633L1238.56 -1.35949H1160.18L1158.39 0.508141V80.7989L1160.18 82.6662H1240.35V0.507633ZM1157.79 0.507633L1155.99 -1.35949H1077.62L1075.82 0.508268V80.7988L1077.62 82.6662H1155.99L1157.79 80.7994V0.507633ZM1075.22 0.507633L1073.43 -1.35949H995.052L993.257 0.508268V82.6662H1073.43L1075.22 80.7994V0.507633ZM992.659 0.507633L990.864 -1.35949H912.487L910.692 0.508268V80.7988L912.487 82.6662H992.659V0.507633ZM912.487 83.2886L910.692 85.1563V165.447L912.487 167.314H990.864L992.659 165.447V83.2886H912.487ZM912.487 167.937L910.692 169.804V250.095L912.487 251.962H990.864L992.659 250.096V169.804L990.864 167.937H912.487ZM912.487 252.585L910.692 254.452V334.743L912.487 336.61H992.659V254.452L990.864 252.585H912.487ZM912.487 337.233L910.692 339.1V419.391L912.487 421.258H990.864L992.659 419.392V337.233H912.487ZM912.487 421.881L910.692 423.749V504.039L912.487 505.906H990.864L992.659 504.04V423.748L990.864 421.881H912.487ZM912.487 506.529L910.692 508.397V588.687L912.487 590.555H992.659V508.396L990.864 506.529H912.487ZM912.487 591.177L910.692 593.045V673.335L912.487 675.203H990.864L992.659 673.336V591.177H912.487ZM912.487 675.825L910.692 677.693V757.983L912.487 759.851H990.864L992.659 757.984V677.692L990.864 675.825H912.487ZM912.487 760.473L910.692 762.341V842.631L912.487 844.499H992.659V762.34L990.864 760.473H912.487ZM993.257 844.499V762.341L995.052 760.473H1073.43L1075.22 762.34V842.632L1073.43 844.499H993.257ZM1073.43 759.851H995.052L993.257 757.983V677.693L995.052 675.825H1073.43L1075.22 677.692V757.984L1073.43 759.851ZM1073.43 675.203H995.052L993.257 673.335V591.177H1073.43L1075.22 593.044V673.336L1073.43 675.203ZM1073.43 590.555L1075.22 588.688V508.396L1073.43 506.529H995.052L993.257 508.397V590.555H1073.43ZM1075.82 588.687L1077.62 590.555H1155.99L1157.79 588.688V508.396L1155.99 506.529H1077.62L1075.82 508.397V588.687ZM1077.62 591.177L1075.82 593.045V673.335L1077.62 675.203H1155.99L1157.79 673.336V593.044L1155.99 591.177H1077.62ZM1077.62 675.825L1075.82 677.693V757.983L1077.62 759.851H1155.99L1157.79 757.984V677.692L1155.99 675.825H1077.62ZM1077.62 760.473L1075.82 762.341V842.631L1077.62 844.499H1155.99L1157.79 842.632V762.34L1155.99 760.473H1077.62ZM1158.39 673.335L1160.18 675.203H1238.56L1240.35 673.336V593.044L1238.56 591.177H1160.18L1158.39 593.045V673.335ZM1240.95 673.335L1242.75 675.203H1321.12L1322.92 673.336V593.044L1321.12 591.177H1242.75L1240.95 593.045V673.335ZM1323.52 673.335L1325.31 675.203H1403.69L1405.48 673.336V593.044L1403.69 591.177H1325.31L1323.52 593.045V673.335ZM1406.08 673.335L1407.88 675.203H1486.25L1488.05 673.336V593.044L1486.25 591.177H1407.88L1406.08 593.045V673.335ZM1488.65 673.335L1490.44 675.203H1568.82L1570.61 673.336V593.044L1568.82 591.177H1490.44L1488.65 593.045V673.335ZM1490.44 675.825L1488.65 677.693V757.983L1490.44 759.851H1568.82L1570.61 757.984V677.692L1568.82 675.825H1490.44ZM1490.44 760.473L1488.65 762.341V844.499H1568.82L1570.61 842.632V762.34L1568.82 760.473H1490.44ZM1571.21 842.631L1573.01 844.499H1651.38L1653.18 842.632V762.34L1651.38 760.473H1573.01L1571.21 762.341V842.631ZM1653.78 842.631L1655.57 844.499H1735.74V762.34L1733.95 760.473H1655.57L1653.78 762.341V842.631ZM1733.95 759.851L1735.74 757.984V677.692L1733.95 675.825H1655.57L1653.78 677.693V757.983L1655.57 759.851H1733.95ZM1733.95 675.203L1735.74 673.336V591.177H1655.57L1653.78 593.045V673.335L1655.57 675.203H1733.95ZM1735.74 590.555H1655.57L1653.78 588.687V508.397L1655.57 506.529H1733.95L1735.74 508.396V590.555ZM1653.18 508.396V588.688L1651.38 590.555H1573.01L1571.21 588.687V508.397L1573.01 506.529H1651.38L1653.18 508.396ZM1573.01 591.177H1651.38L1653.18 593.044V673.336L1651.38 675.203H1573.01L1571.21 673.335V593.045L1573.01 591.177ZM1573.01 675.825H1651.38L1653.18 677.692V757.984L1651.38 759.851H1573.01L1571.21 757.983V677.693L1573.01 675.825ZM1570.61 508.396V588.688L1568.82 590.555H1490.44L1488.65 588.687V508.397L1490.44 506.529H1568.82L1570.61 508.396ZM1488.05 508.396V588.688L1486.25 590.555H1407.88L1406.08 588.687V508.397L1407.88 506.529H1486.25L1488.05 508.396ZM1405.48 508.396V588.688L1403.69 590.555H1325.31L1323.52 588.687V508.397L1325.31 506.529H1403.69L1405.48 508.396ZM1322.92 508.396V588.688L1321.12 590.555H1242.75L1240.95 588.687V508.397L1242.75 506.529H1321.12L1322.92 508.396ZM1240.35 508.396V588.688L1238.56 590.555H1160.18L1158.39 588.687V508.396L1160.18 506.529H1238.56L1240.35 508.396ZM1238.56 505.906H1160.18L1158.39 504.039V423.748L1160.18 421.881H1238.56L1240.35 423.748V504.04L1238.56 505.906ZM1157.79 423.748V504.04L1155.99 505.906H1077.62L1075.82 504.039V423.749L1077.62 421.881H1155.99L1157.79 423.748ZM1075.22 423.748V504.04L1073.43 505.906H995.052L993.257 504.039V423.749L995.052 421.881H1073.43L1075.22 423.748ZM1073.43 421.258H995.052L993.257 419.391V337.233H1073.43L1075.22 339.1V419.392L1073.43 421.258ZM1073.43 336.61L1075.22 334.744V254.452L1073.43 252.585H995.052L993.257 254.452V336.61H1073.43ZM1075.82 334.743L1077.62 336.61H1155.99L1157.79 334.744V254.452L1155.99 252.585H1077.62L1075.82 254.452V334.743ZM1077.62 337.233L1075.82 339.1V419.391L1077.62 421.258H1155.99L1157.79 419.392V339.1L1155.99 337.233H1077.62ZM1158.39 419.391L1160.18 421.258H1238.56L1240.35 419.392V339.1L1238.56 337.233H1160.18L1158.39 339.1V419.391ZM1240.95 419.391L1242.75 421.258H1321.12L1322.92 419.392V339.1L1321.12 337.233H1242.75L1240.95 339.1V419.391ZM1242.75 421.881L1240.95 423.749V504.039L1242.75 505.906H1321.12L1322.92 504.04V423.748L1321.12 421.881H1242.75ZM1323.52 504.039L1325.31 505.906H1403.69L1405.48 504.04V423.748L1403.69 421.881H1325.31L1323.52 423.749V504.039ZM1406.08 504.039L1407.88 505.906H1486.25L1488.05 504.04V423.748L1486.25 421.881H1407.88L1406.08 423.749V504.039ZM1488.65 504.039L1490.44 505.906H1568.82L1570.61 504.04V423.748L1568.82 421.881H1490.44L1488.65 423.749V504.039ZM1571.21 504.039L1573.01 505.906H1651.38L1653.18 504.04V423.748L1651.38 421.881H1573.01L1571.21 423.749V504.039ZM1653.78 504.039L1655.57 505.906H1733.95L1735.74 504.04V423.748L1733.95 421.881H1655.57L1653.78 423.749V504.039ZM1733.95 421.258L1735.74 419.392V337.233H1655.57L1653.78 339.1V419.391L1655.57 421.258H1733.95ZM1735.74 336.61H1655.57L1653.78 334.743V254.452L1655.57 252.585H1733.95L1735.74 254.452V336.61ZM1653.18 254.452V334.744L1651.38 336.61H1573.01L1571.21 334.743V254.452L1573.01 252.585H1651.38L1653.18 254.452ZM1573.01 337.233H1651.38L1653.18 339.1V419.392L1651.38 421.258H1573.01L1571.21 419.391V339.1L1573.01 337.233ZM1570.61 339.1V419.392L1568.82 421.258H1490.44L1488.65 419.391V339.1L1490.44 337.233H1568.82L1570.61 339.1ZM1488.05 339.1V419.392L1486.25 421.258H1407.88L1406.08 419.391V339.1L1407.88 337.233H1486.25L1488.05 339.1ZM1405.48 339.1V419.392L1403.69 421.258H1325.31L1323.52 419.391V339.1L1325.31 337.233H1403.69L1405.48 339.1ZM1403.69 336.61H1325.31L1323.52 334.743V254.452L1325.31 252.585H1403.69L1405.48 254.452V334.744L1403.69 336.61ZM1322.92 254.452V334.744L1321.12 336.61H1242.75L1240.95 334.743V254.452L1242.75 252.585H1321.12L1322.92 254.452ZM1240.35 254.452V334.744L1238.56 336.61H1160.18L1158.39 334.743V254.452L1160.18 252.585H1238.56L1240.35 254.452ZM1238.56 251.962H1160.18L1158.39 250.095V169.804L1160.18 167.937H1238.56L1240.35 169.804V250.096L1238.56 251.962ZM1157.79 169.804V250.096L1155.99 251.962H1077.62L1075.82 250.095V169.804L1077.62 167.937H1155.99L1157.79 169.804ZM1075.22 169.804V250.096L1073.43 251.962H995.052L993.257 250.095V169.804L995.052 167.937H1073.43L1075.22 169.804ZM1073.43 167.314H995.052L993.257 165.447V83.2886H1073.43L1075.22 85.1557V165.447L1073.43 167.314ZM1075.82 165.447V85.1563L1077.62 83.2886H1155.99L1157.79 85.1557V165.447L1155.99 167.314H1077.62L1075.82 165.447ZM1158.39 165.447V85.1562L1160.18 83.2886H1240.35V165.447L1238.56 167.314H1160.18L1158.39 165.447ZM1240.95 165.447L1242.75 167.314H1321.12L1322.92 165.447V85.1557L1321.12 83.2886H1240.95V165.447ZM1242.75 167.937L1240.95 169.804V250.095L1242.75 251.962H1321.12L1322.92 250.096V169.804L1321.12 167.937H1242.75ZM1323.52 250.095L1325.31 251.962H1403.69L1405.48 250.096V169.804L1403.69 167.937H1325.31L1323.52 169.804V250.095ZM1406.08 250.095L1407.88 251.962H1486.25L1488.05 250.096V169.804L1486.25 167.937H1407.88L1406.08 169.804V250.095ZM1407.88 252.585L1406.08 254.452V334.743L1407.88 336.61H1486.25L1488.05 334.744V254.452L1486.25 252.585H1407.88ZM1488.65 334.743L1490.44 336.61H1568.82L1570.61 334.744V254.452L1568.82 252.585H1490.44L1488.65 254.452V334.743ZM1568.82 251.962L1570.61 250.096V169.804L1568.82 167.937H1490.44L1488.65 169.804V250.095L1490.44 251.962H1568.82ZM1571.21 250.095L1573.01 251.962H1651.38L1653.18 250.096V169.804L1651.38 167.937H1573.01L1571.21 169.804V250.095ZM1653.78 250.095L1655.57 251.962H1733.95L1735.74 250.096V169.804L1733.95 167.937H1655.57L1653.78 169.804V250.095ZM1733.95 167.314L1735.74 165.448V83.2886H1655.57L1653.78 85.1563V165.447L1655.57 167.314H1733.95ZM1653.18 85.1557L1651.38 83.2886H1573.01L1571.21 85.1563V165.447L1573.01 167.314H1651.38L1653.18 165.447V85.1557ZM1570.61 85.1556L1568.82 83.2886H1488.65V165.447L1490.44 167.314H1568.82L1570.61 165.448V85.1556ZM1488.05 83.2886V165.447L1486.25 167.314H1407.88L1406.08 165.447V85.1563L1407.88 83.2886H1488.05ZM1405.48 85.1557V165.447L1403.69 167.314H1325.31L1323.52 165.447V85.1563L1325.31 83.2886H1403.69L1405.48 85.1557ZM1366.3 463.894L1364.5 462.027L1362.71 463.894L1364.5 465.761L1366.3 463.894ZM1364.5 550.409L1362.71 548.542L1364.5 546.675L1366.3 548.542L1364.5 550.409ZM1364.5 635.057L1362.71 633.19L1364.5 631.323L1366.3 633.19L1364.5 635.057ZM1364.5 719.705L1362.71 717.838L1364.5 715.971L1366.3 717.838L1364.5 719.705ZM1364.5 804.353L1362.71 802.486L1364.5 800.619L1366.3 802.486L1364.5 804.353ZM1364.5 889.001L1362.71 887.134L1364.5 885.267L1366.3 887.134L1364.5 889.001ZM1364.5 381.113L1362.71 379.246L1364.5 377.379L1366.3 379.246L1364.5 381.113ZM1364.5 296.465L1362.71 294.598L1364.5 292.731L1366.3 294.598L1364.5 296.465ZM1364.5 211.817L1362.71 209.95L1364.5 208.083L1366.3 209.95L1364.5 211.817ZM1364.5 127.169L1362.71 125.302L1364.5 123.434L1366.3 125.302L1364.5 127.169ZM1364.5 42.5209L1362.71 40.6537L1364.5 38.7864L1366.3 40.6537L1364.5 42.5209ZM1281.94 465.761L1280.14 463.894L1281.94 462.027L1283.73 463.894L1281.94 465.761ZM1281.94 550.409L1280.14 548.542L1281.94 546.675L1283.73 548.542L1281.94 550.409ZM1281.94 635.057L1280.14 633.19L1281.94 631.323L1283.73 633.19L1281.94 635.057ZM1281.94 719.705L1280.14 717.838L1281.94 715.971L1283.73 717.838L1281.94 719.705ZM1281.94 804.353L1280.14 802.486L1281.94 800.619L1283.73 802.486L1281.94 804.353ZM1281.94 889.001L1280.14 887.134L1281.94 885.267L1283.73 887.134L1281.94 889.001ZM1281.94 381.113L1280.14 379.246L1281.94 377.379L1283.73 379.246L1281.94 381.113ZM1281.94 296.465L1280.14 294.598L1281.94 292.731L1283.73 294.598L1281.94 296.465ZM1281.94 211.817L1280.14 209.95L1281.94 208.083L1283.73 209.95L1281.94 211.817ZM1281.94 127.169L1280.14 125.302L1281.94 123.434L1283.73 125.302L1281.94 127.169ZM1281.94 42.5209L1280.14 40.6537L1281.94 38.7864L1283.73 40.6537L1281.94 42.5209ZM1199.37 465.761L1197.58 463.894L1199.37 462.027L1201.17 463.894L1199.37 465.761ZM1199.37 550.409L1197.58 548.542L1199.37 546.675L1201.17 548.542L1199.37 550.409ZM1199.37 635.057L1197.58 633.19L1199.37 631.323L1201.17 633.19L1199.37 635.057ZM1199.37 719.705L1197.58 717.838L1199.37 715.971L1201.17 717.838L1199.37 719.705ZM1199.37 804.353L1197.58 802.486L1199.37 800.619L1201.17 802.486L1199.37 804.353ZM1199.37 889.001L1197.58 887.134L1199.37 885.267L1201.17 887.134L1199.37 889.001ZM1199.37 381.113L1197.58 379.246L1199.37 377.379L1201.17 379.246L1199.37 381.113ZM1199.37 296.465L1197.58 294.598L1199.37 292.731L1201.17 294.598L1199.37 296.465ZM1199.37 211.817L1197.58 209.95L1199.37 208.083L1201.17 209.95L1199.37 211.817ZM1199.37 127.169L1197.58 125.302L1199.37 123.434L1201.17 125.302L1199.37 127.169ZM1199.37 42.5209L1197.58 40.6537L1199.37 38.7864L1201.17 40.6537L1199.37 42.5209ZM1116.81 465.761L1115.01 463.894L1116.81 462.027L1118.6 463.894L1116.81 465.761ZM1116.81 550.409L1115.01 548.542L1116.81 546.675L1118.6 548.542L1116.81 550.409ZM1116.81 635.057L1115.01 633.19L1116.81 631.323L1118.6 633.19L1116.81 635.057ZM1116.81 719.705L1115.01 717.838L1116.81 715.971L1118.6 717.838L1116.81 719.705ZM1116.81 804.353L1115.01 802.486L1116.81 800.619L1118.6 802.486L1116.81 804.353ZM1116.81 889.001L1115.01 887.134L1116.81 885.267L1118.6 887.134L1116.81 889.001ZM1116.81 381.113L1115.01 379.246L1116.81 377.379L1118.6 379.246L1116.81 381.113ZM1116.81 296.465L1115.01 294.598L1116.81 292.731L1118.6 294.598L1116.81 296.465ZM1116.81 211.817L1115.01 209.95L1116.81 208.083L1118.6 209.95L1116.81 211.817ZM1116.81 127.169L1115.01 125.302L1116.81 123.434L1118.6 125.302L1116.81 127.169ZM1116.81 42.5209L1115.01 40.6537L1116.81 38.7864L1118.6 40.6537L1116.81 42.5209ZM1034.24 465.761L1032.45 463.894L1034.24 462.027L1036.04 463.894L1034.24 465.761ZM1034.24 550.409L1032.45 548.542L1034.24 546.675L1036.04 548.542L1034.24 550.409ZM1034.24 635.057L1032.45 633.19L1034.24 631.323L1036.04 633.19L1034.24 635.057ZM1034.24 719.705L1032.45 717.838L1034.24 715.971L1036.04 717.838L1034.24 719.705ZM1034.24 804.353L1032.45 802.486L1034.24 800.619L1036.04 802.486L1034.24 804.353ZM1034.24 889.001L1032.45 887.134L1034.24 885.267L1036.04 887.134L1034.24 889.001ZM1034.24 381.113L1032.45 379.246L1034.24 377.379L1036.04 379.246L1034.24 381.113ZM1034.24 296.465L1032.45 294.598L1034.24 292.731L1036.04 294.598L1034.24 296.465ZM1034.24 211.817L1032.45 209.95L1034.24 208.083L1036.04 209.95L1034.24 211.817ZM1034.24 127.169L1032.45 125.302L1034.24 123.434L1036.04 125.302L1034.24 127.169ZM1034.24 42.5209L1032.45 40.6537L1034.24 38.7864L1036.04 40.6537L1034.24 42.5209ZM951.676 465.761L949.881 463.894L951.676 462.027L953.471 463.894L951.676 465.761ZM951.676 550.409L949.881 548.542L951.676 546.675L953.471 548.542L951.676 550.409ZM951.676 635.057L949.881 633.19L951.676 631.323L953.471 633.19L951.676 635.057ZM951.676 719.705L949.881 717.838L951.676 715.971L953.471 717.838L951.676 719.705ZM951.676 804.353L949.881 802.486L951.676 800.619L953.471 802.486L951.676 804.353ZM951.676 889.001L949.881 887.134L951.676 885.267L953.471 887.134L951.676 889.001ZM951.676 381.113L949.881 379.246L951.676 377.379L953.471 379.246L951.676 381.113ZM951.676 296.465L949.881 294.598L951.676 292.731L953.471 294.598L951.676 296.465ZM951.676 211.817L949.881 209.95L951.676 208.083L953.471 209.95L951.676 211.817ZM951.676 127.169L949.881 125.302L951.676 123.434L953.471 125.302L951.676 127.169ZM951.676 42.5209L949.881 40.6537L951.676 38.7864L953.471 40.6537L951.676 42.5209ZM1447.06 465.761L1445.27 463.894L1447.06 462.027L1448.86 463.894L1447.06 465.761ZM1447.06 550.409L1445.27 548.542L1447.06 546.675L1448.86 548.542L1447.06 550.409ZM1447.06 635.057L1445.27 633.19L1447.06 631.323L1448.86 633.19L1447.06 635.057ZM1447.06 719.705L1445.27 717.838L1447.06 715.971L1448.86 717.838L1447.06 719.705ZM1447.06 804.353L1445.27 802.486L1447.06 800.619L1448.86 802.486L1447.06 804.353ZM1447.06 889.001L1445.27 887.134L1447.06 885.267L1448.86 887.134L1447.06 889.001ZM1447.06 381.113L1445.27 379.246L1447.06 377.379L1448.86 379.246L1447.06 381.113ZM1447.06 296.465L1445.27 294.598L1447.06 292.731L1448.86 294.598L1447.06 296.465ZM1447.06 211.817L1445.27 209.95L1447.06 208.083L1448.86 209.95L1447.06 211.817ZM1447.06 127.169L1445.27 125.302L1447.06 123.434L1448.86 125.302L1447.06 127.169ZM1447.06 42.5209L1445.27 40.6537L1447.06 38.7864L1448.86 40.6537L1447.06 42.5209ZM1529.63 465.761L1527.83 463.894L1529.63 462.027L1531.42 463.894L1529.63 465.761ZM1529.63 550.409L1527.83 548.542L1529.63 546.675L1531.42 548.542L1529.63 550.409ZM1529.63 635.057L1527.83 633.19L1529.63 631.323L1531.42 633.19L1529.63 635.057ZM1529.63 719.705L1527.83 717.838L1529.63 715.971L1531.42 717.838L1529.63 719.705ZM1529.63 804.353L1527.83 802.486L1529.63 800.619L1531.42 802.486L1529.63 804.353ZM1529.63 889.001L1527.83 887.134L1529.63 885.267L1531.42 887.134L1529.63 889.001ZM1529.63 381.113L1527.83 379.246L1529.63 377.379L1531.42 379.246L1529.63 381.113ZM1529.63 296.465L1527.83 294.598L1529.63 292.731L1531.42 294.598L1529.63 296.465ZM1529.63 211.817L1527.83 209.95L1529.63 208.083L1531.42 209.95L1529.63 211.817ZM1529.63 127.169L1527.83 125.302L1529.63 123.434L1531.42 125.302L1529.63 127.169ZM1529.63 42.5209L1527.83 40.6537L1529.63 38.7864L1531.42 40.6537L1529.63 42.5209ZM1612.19 465.761L1610.4 463.894L1612.19 462.027L1613.99 463.894L1612.19 465.761ZM1612.19 550.409L1610.4 548.542L1612.19 546.675L1613.99 548.542L1612.19 550.409ZM1612.19 635.057L1610.4 633.19L1612.19 631.323L1613.99 633.19L1612.19 635.057ZM1612.19 719.705L1610.4 717.838L1612.19 715.971L1613.99 717.838L1612.19 719.705ZM1612.19 804.353L1610.4 802.486L1612.19 800.619L1613.99 802.486L1612.19 804.353ZM1612.19 889.001L1610.4 887.134L1612.19 885.267L1613.99 887.134L1612.19 889.001ZM1612.19 381.113L1610.4 379.246L1612.19 377.379L1613.99 379.246L1612.19 381.113ZM1612.19 296.465L1610.4 294.598L1612.19 292.731L1613.99 294.598L1612.19 296.465ZM1612.19 211.817L1610.4 209.95L1612.19 208.083L1613.99 209.95L1612.19 211.817ZM1612.19 127.169L1610.4 125.302L1612.19 123.434L1613.99 125.302L1612.19 127.169ZM1612.19 42.5209L1610.4 40.6537L1612.19 38.7864L1613.99 40.6537L1612.19 42.5209ZM1694.76 465.761L1692.96 463.894L1694.76 462.027L1696.55 463.894L1694.76 465.761ZM1694.76 550.409L1692.96 548.542L1694.76 546.675L1696.55 548.542L1694.76 550.409ZM1694.76 635.057L1692.96 633.19L1694.76 631.323L1696.55 633.19L1694.76 635.057ZM1694.76 719.705L1692.96 717.838L1694.76 715.971L1696.55 717.838L1694.76 719.705ZM1694.76 804.353L1692.96 802.486L1694.76 800.619L1696.55 802.486L1694.76 804.353ZM1694.76 889.001L1692.96 887.134L1694.76 885.267L1696.55 887.134L1694.76 889.001ZM1694.76 381.113L1692.96 379.246L1694.76 377.379L1696.55 379.246L1694.76 381.113ZM1694.76 296.465L1692.96 294.598L1694.76 292.731L1696.55 294.598L1694.76 296.465ZM1694.76 211.817L1692.96 209.95L1694.76 208.083L1696.55 209.95L1694.76 211.817ZM1694.76 127.169L1692.96 125.302L1694.76 123.434L1696.55 125.302L1694.76 127.169ZM1694.76 42.5209L1692.96 40.6537L1694.76 38.7864L1696.55 40.6537L1694.76 42.5209ZM1777.32 465.761L1775.53 463.894L1777.32 462.027L1779.12 463.894L1777.32 465.761ZM1777.32 550.409L1775.53 548.542L1777.32 546.675L1779.12 548.542L1777.32 550.409ZM1777.32 635.057L1775.53 633.19L1777.32 631.323L1779.12 633.19L1777.32 635.057ZM1777.32 719.705L1775.53 717.838L1777.32 715.971L1779.12 717.838L1777.32 719.705ZM1777.32 804.353L1775.53 802.486L1777.32 800.619L1779.12 802.486L1777.32 804.353ZM1777.32 889.001L1775.53 887.134L1777.32 885.267L1779.12 887.134L1777.32 889.001ZM1777.32 381.113L1775.53 379.246L1777.32 377.379L1779.12 379.246L1777.32 381.113ZM1777.32 296.465L1775.53 294.598L1777.32 292.731L1779.12 294.598L1777.32 296.465ZM1777.32 211.817L1775.53 209.95L1777.32 208.083L1779.12 209.95L1777.32 211.817ZM1777.32 127.169L1775.53 125.302L1777.32 123.434L1779.12 125.302L1777.32 127.169ZM1777.32 42.5209L1775.53 40.6537L1777.32 38.7864L1779.12 40.6537L1777.32 42.5209ZM456.5 462.027L458.295 463.894L456.5 465.761L454.705 463.894L456.5 462.027ZM454.705 548.542L456.5 550.409L458.295 548.542L456.5 546.675L454.705 548.542ZM454.705 633.19L456.5 635.057L458.295 633.19L456.5 631.323L454.705 633.19ZM454.705 717.838L456.5 719.705L458.295 717.838L456.5 715.971L454.705 717.838ZM454.705 802.486L456.5 804.353L458.295 802.486L456.5 800.619L454.705 802.486ZM454.705 887.134L456.5 889.001L458.295 887.134L456.5 885.267L454.705 887.134ZM454.705 379.246L456.5 381.113L458.295 379.246L456.5 377.379L454.705 379.246ZM454.705 294.598L456.5 296.465L458.295 294.598L456.5 292.731L454.705 294.598ZM454.705 209.95L456.5 211.817L458.295 209.95L456.5 208.083L454.705 209.95ZM454.705 125.302L456.5 127.169L458.295 125.302L456.5 123.434L454.705 125.302ZM454.705 40.6537L456.5 42.5209L458.295 40.6537L456.5 38.7864L454.705 40.6537ZM372.14 463.894L373.935 465.761L375.73 463.894L373.935 462.027L372.14 463.894ZM372.14 548.542L373.935 550.409L375.73 548.542L373.935 546.675L372.14 548.542ZM372.14 633.19L373.935 635.057L375.73 633.19L373.935 631.323L372.14 633.19ZM372.14 717.838L373.935 719.705L375.73 717.838L373.935 715.971L372.14 717.838ZM372.14 802.486L373.935 804.353L375.73 802.486L373.935 800.619L372.14 802.486ZM372.14 887.134L373.935 889.001L375.73 887.134L373.935 885.267L372.14 887.134ZM372.14 379.246L373.935 381.113L375.73 379.246L373.935 377.379L372.14 379.246ZM372.14 294.598L373.935 296.465L375.73 294.598L373.935 292.731L372.14 294.598ZM372.14 209.95L373.935 211.817L375.73 209.95L373.935 208.083L372.14 209.95ZM372.14 125.302L373.935 127.169L375.73 125.302L373.935 123.434L372.14 125.302ZM372.14 40.6537L373.935 42.5209L375.73 40.6537L373.935 38.7864L372.14 40.6537ZM289.575 463.894L291.37 465.761L293.165 463.894L291.37 462.027L289.575 463.894ZM289.575 548.542L291.37 550.409L293.165 548.542L291.37 546.675L289.575 548.542ZM289.575 633.19L291.37 635.057L293.165 633.19L291.37 631.323L289.575 633.19ZM289.575 717.838L291.37 719.705L293.165 717.838L291.37 715.971L289.575 717.838ZM289.575 802.486L291.37 804.353L293.165 802.486L291.37 800.619L289.575 802.486ZM289.575 887.134L291.37 889.001L293.165 887.134L291.37 885.267L289.575 887.134ZM289.575 379.246L291.37 381.113L293.165 379.246L291.37 377.379L289.575 379.246ZM289.575 294.598L291.37 296.465L293.165 294.598L291.37 292.731L289.575 294.598ZM289.575 209.95L291.37 211.817L293.165 209.95L291.37 208.083L289.575 209.95ZM289.575 125.302L291.37 127.169L293.165 125.302L291.37 123.434L289.575 125.302ZM289.575 40.6537L291.37 42.5209L293.165 40.6537L291.37 38.7864L289.575 40.6537ZM207.011 463.894L208.805 465.761L210.6 463.894L208.805 462.027L207.011 463.894ZM207.011 548.542L208.805 550.409L210.6 548.542L208.805 546.675L207.011 548.542ZM207.011 633.19L208.805 635.057L210.6 633.19L208.805 631.323L207.011 633.19ZM207.011 717.838L208.805 719.705L210.6 717.838L208.805 715.971L207.011 717.838ZM207.011 802.486L208.805 804.353L210.6 802.486L208.805 800.619L207.011 802.486ZM207.011 887.134L208.805 889.001L210.6 887.134L208.805 885.267L207.011 887.134ZM207.011 379.246L208.805 381.113L210.6 379.246L208.805 377.379L207.011 379.246ZM207.011 294.598L208.805 296.465L210.6 294.598L208.805 292.731L207.011 294.598ZM207.011 209.95L208.805 211.817L210.6 209.95L208.805 208.083L207.011 209.95ZM207.011 125.302L208.805 127.169L210.6 125.302L208.805 123.434L207.011 125.302ZM207.011 40.6537L208.805 42.5209L210.6 40.6537L208.805 38.7864L207.011 40.6537ZM124.446 463.894L126.241 465.761L128.036 463.894L126.241 462.027L124.446 463.894ZM124.446 548.542L126.241 550.409L128.036 548.542L126.241 546.675L124.446 548.542ZM124.446 633.19L126.241 635.057L128.036 633.19L126.241 631.323L124.446 633.19ZM124.446 717.838L126.241 719.705L128.036 717.838L126.241 715.971L124.446 717.838ZM124.446 802.486L126.241 804.353L128.036 802.486L126.241 800.619L124.446 802.486ZM124.446 887.134L126.241 889.001L128.036 887.134L126.241 885.267L124.446 887.134ZM124.446 379.246L126.241 381.113L128.036 379.246L126.241 377.379L124.446 379.246ZM124.446 294.598L126.241 296.465L128.036 294.598L126.241 292.731L124.446 294.598ZM124.446 209.95L126.241 211.817L128.036 209.95L126.241 208.083L124.446 209.95ZM124.446 125.302L126.241 127.169L128.036 125.302L126.241 123.434L124.446 125.302ZM124.446 40.6537L126.241 42.5209L128.036 40.6537L126.241 38.7864L124.446 40.6537ZM41.8809 463.894L43.6757 465.761L45.4706 463.894L43.6757 462.027L41.8809 463.894ZM41.8809 548.542L43.6757 550.409L45.4706 548.542L43.6757 546.675L41.8809 548.542ZM41.8809 633.19L43.6757 635.057L45.4706 633.19L43.6757 631.323L41.8809 633.19ZM41.8809 717.838L43.6757 719.705L45.4706 717.838L43.6757 715.971L41.8809 717.838ZM41.8809 802.486L43.6757 804.353L45.4706 802.486L43.6757 800.619L41.8809 802.486ZM41.8809 887.134L43.6757 889.001L45.4706 887.134L43.6757 885.267L41.8809 887.134ZM41.8809 379.246L43.6757 381.113L45.4706 379.246L43.6757 377.379L41.8809 379.246ZM41.8809 294.598L43.6757 296.465L45.4706 294.598L43.6757 292.731L41.8809 294.598ZM41.8809 209.95L43.6757 211.817L45.4706 209.95L43.6757 208.083L41.8809 209.95ZM41.8809 125.302L43.6757 127.169L45.4706 125.302L43.6757 123.434L41.8809 125.302ZM41.8809 40.6537L43.6757 42.5209L45.4706 40.6537L43.6757 38.7864L41.8809 40.6537ZM537.27 463.894L539.065 465.761L540.86 463.894L539.065 462.027L537.27 463.894ZM537.27 548.542L539.065 550.409L540.86 548.542L539.065 546.675L537.27 548.542ZM537.27 633.19L539.065 635.057L540.86 633.19L539.065 631.323L537.27 633.19ZM537.27 717.838L539.065 719.705L540.86 717.838L539.065 715.971L537.27 717.838ZM537.27 802.486L539.065 804.353L540.86 802.486L539.065 800.619L537.27 802.486ZM537.27 887.134L539.065 889.001L540.86 887.134L539.065 885.267L537.27 887.134ZM537.27 379.246L539.065 381.113L540.86 379.246L539.065 377.379L537.27 379.246ZM537.27 294.598L539.065 296.465L540.86 294.598L539.065 292.731L537.27 294.598ZM537.27 209.95L539.065 211.817L540.86 209.95L539.065 208.083L537.27 209.95ZM537.27 125.302L539.065 127.169L540.86 125.302L539.065 123.434L537.27 125.302ZM537.27 40.6537L539.065 42.5209L540.86 40.6537L539.065 38.7864L537.27 40.6537ZM619.835 463.894L621.63 465.761L623.425 463.894L621.63 462.027L619.835 463.894ZM619.835 548.542L621.63 550.409L623.425 548.542L621.63 546.675L619.835 548.542ZM619.835 633.19L621.63 635.057L623.425 633.19L621.63 631.323L619.835 633.19ZM619.835 717.838L621.63 719.705L623.425 717.838L621.63 715.971L619.835 717.838ZM619.835 802.486L621.63 804.353L623.425 802.486L621.63 800.619L619.835 802.486ZM619.835 887.134L621.63 889.001L623.425 887.134L621.63 885.267L619.835 887.134ZM619.835 379.246L621.63 381.113L623.425 379.246L621.63 377.379L619.835 379.246ZM619.835 294.598L621.63 296.465L623.425 294.598L621.63 292.731L619.835 294.598ZM619.835 209.95L621.63 211.817L623.425 209.95L621.63 208.083L619.835 209.95ZM619.835 125.302L621.63 127.169L623.425 125.302L621.63 123.434L619.835 125.302ZM619.835 40.6537L621.63 42.5209L623.425 40.6537L621.63 38.7864L619.835 40.6537ZM702.4 463.894L704.195 465.761L705.99 463.894L704.195 462.027L702.4 463.894ZM702.4 548.542L704.195 550.409L705.99 548.542L704.195 546.675L702.4 548.542ZM702.4 633.19L704.195 635.057L705.99 633.19L704.195 631.323L702.4 633.19ZM702.4 717.838L704.195 719.705L705.99 717.838L704.195 715.971L702.4 717.838ZM702.4 802.486L704.195 804.353L705.99 802.486L704.195 800.619L702.4 802.486ZM702.4 887.134L704.195 889.001L705.99 887.134L704.195 885.267L702.4 887.134ZM702.4 379.246L704.195 381.113L705.99 379.246L704.195 377.379L702.4 379.246ZM702.4 294.598L704.195 296.465L705.99 294.598L704.195 292.731L702.4 294.598ZM702.4 209.95L704.195 211.817L705.99 209.95L704.195 208.083L702.4 209.95ZM702.4 125.302L704.195 127.169L705.99 125.302L704.195 123.434L702.4 125.302ZM702.4 40.6537L704.195 42.5209L705.99 40.6537L704.195 38.7864L702.4 40.6537ZM784.965 463.894L786.76 465.761L788.554 463.894L786.76 462.027L784.965 463.894ZM784.965 548.542L786.76 550.409L788.554 548.542L786.76 546.675L784.965 548.542ZM784.965 633.19L786.76 635.057L788.554 633.19L786.76 631.323L784.965 633.19ZM784.965 717.838L786.76 719.705L788.554 717.838L786.76 715.971L784.965 717.838ZM784.965 802.486L786.76 804.353L788.554 802.486L786.76 800.619L784.965 802.486ZM784.965 887.134L786.76 889.001L788.554 887.134L786.76 885.267L784.965 887.134ZM784.965 379.246L786.76 381.113L788.554 379.246L786.76 377.379L784.965 379.246ZM784.965 294.598L786.76 296.465L788.554 294.598L786.76 292.731L784.965 294.598ZM784.965 209.95L786.76 211.817L788.554 209.95L786.76 208.083L784.965 209.95ZM784.965 125.302L786.76 127.169L788.554 125.302L786.76 123.434L784.965 125.302ZM784.965 40.6537L786.76 42.5209L788.554 40.6537L786.76 38.7864L784.965 40.6537ZM867.53 463.894L869.324 465.761L871.119 463.894L869.324 462.027L867.53 463.894ZM867.53 548.542L869.324 550.409L871.119 548.542L869.324 546.675L867.53 548.542ZM867.53 633.19L869.324 635.057L871.119 633.19L869.324 631.323L867.53 633.19ZM867.53 717.838L869.324 719.705L871.119 717.838L869.324 715.971L867.53 717.838ZM867.53 802.486L869.324 804.353L871.119 802.486L869.324 800.619L867.53 802.486ZM867.53 887.134L869.324 889.001L871.119 887.134L869.324 885.267L867.53 887.134ZM867.53 379.246L869.324 381.113L871.119 379.246L869.324 377.379L867.53 379.246ZM867.53 294.598L869.324 296.465L871.119 294.598L869.324 292.731L867.53 294.598ZM867.53 209.95L869.324 211.817L871.119 209.95L869.324 208.083L867.53 209.95ZM867.53 125.302L869.324 127.169L871.119 125.302L869.324 123.434L867.53 125.302ZM867.53 40.6537L869.324 42.5209L871.119 40.6537L869.324 38.7864L867.53 40.6537Z" fill="url(#paint0_linear_4008_6296)"/>
<defs>
<linearGradient id="paint0_linear_4008_6296" x1="-5.41355e-06" y1="1.04045" x2="1455.35" y2="864.133" gradientUnits="userSpaceOnUse">
<stop stop-color="white" stop-opacity="0.02"/>
<stop offset="0.210445" stop-color="white" stop-opacity="0.02"/>
<stop offset="0.875" stop-color="white" stop-opacity="0.1"/>
<stop offset="1" stop-color="white" stop-opacity="0.02"/>
</linearGradient>
</defs>
</svg>
